HIERARCHY
ROOT Hips
{
	OFFSET -3.958830 18.904000 13.208200
	CHANNELS 6 Xposition Yposition Zposition Zrotation Yrotation Xrotation 
	JOINT LHipJoint
	{
		OFFSET 0.000000 0.000000 0.000000
		CHANNELS 3 Zrotation Yrotation Xrotation
		JOINT LeftUpLeg
		{
			OFFSET 1.800000 -1.400000 0.085000
			CHANNELS 3 Zrotation Yrotation Xrotation
			JOINT LeftLeg
			{
				OFFSET 2.215000 -6.000000 0.000000
				CHANNELS 3 Zrotation Yrotation Xrotation
				JOINT LeftFoot
				{
					OFFSET 2.500000 -6.900000 0.000000
					CHANNELS 3 Zrotation Yrotation Xrotation
					JOINT LeftToeBase
					{
						OFFSET 0.200000 -0.500000 1.950000
						CHANNELS 3 Zrotation Yrotation Xrotation
						End Site
						{
							OFFSET 0.000000 0.000000 0.000000
						}
					}
				}
			}
		}
	}
	JOINT RHipJoint
	{
		OFFSET 0.000000 0.000000 0.000000
		CHANNELS 3 Zrotation Yrotation Xrotation
		JOINT RightUpLeg
		{
			OFFSET -1.800000 -1.400000 0.085000
			CHANNELS 3 Zrotation Yrotation Xrotation
			JOINT RightLeg
			{
				OFFSET -2.215000 -6.000000 0.000000
				CHANNELS 3 Zrotation Yrotation Xrotation
				JOINT RightFoot
				{
					OFFSET -2.500000 -6.900000 0.000000
					CHANNELS 3 Zrotation Yrotation Xrotation
					JOINT RightToeBase
					{
						OFFSET -0.200000 -0.500000 1.950000
						CHANNELS 3 Zrotation Yrotation Xrotation
						End Site
						{
							OFFSET 0.000000 0.000000 0.000000
						}
					}
				}
			}
		}
	}
	JOINT LowerBack
	{
		OFFSET 0.000000 0.000000 0.000000
		CHANNELS 3 Zrotation Yrotation Xrotation
		JOINT Spine
		{
			OFFSET -0.087000 1.940000 -0.288900
			CHANNELS 3 Zrotation Yrotation Xrotation
			JOINT Spine1
			{
				OFFSET 0.000000 1.950000 0.060000
				CHANNELS 3 Zrotation Yrotation Xrotation
				JOINT Neck
				{
					OFFSET 0.000000 0.000000 0.000000
					CHANNELS 3 Zrotation Yrotation Xrotation
					JOINT Neck1
					{
						OFFSET 0.000000 1.600000 0.340000
						CHANNELS 3 Zrotation Yrotation Xrotation
						JOINT Head
						{
							OFFSET 0.000000 1.667000 -0.240000
							CHANNELS 3 Zrotation Yrotation Xrotation
							End Site
							{
								OFFSET 0.000000 0.000000 0.000000
							}
						}
					}
				}
				JOINT LeftShoulder
				{
					OFFSET 0.000000 0.000000 0.000000
					CHANNELS 3 Zrotation Yrotation Xrotation
					JOINT LeftArm
					{
						OFFSET 2.700000 1.550000 -0.730000
						CHANNELS 3 Zrotation Yrotation Xrotation
						JOINT LeftForeArm
						{
							OFFSET 5.450000 0.000000 0.000000
							CHANNELS 3 Zrotation Yrotation Xrotation
							JOINT LeftHand
							{
								OFFSET 3.450000 0.000000 0.000000
								CHANNELS 3 Zrotation Yrotation Xrotation
								JOINT LeftHandIndex1
								{
									OFFSET 0.750000 0.000000 0.000000
									CHANNELS 3 Zrotation Yrotation Xrotation
									End Site
									{
										OFFSET 0.000000 0.000000 0.000000
									}
								}
							}
						}
					}
				}
				JOINT RightShoulder
				{
					OFFSET 0.000000 0.000000 0.000000
					CHANNELS 3 Zrotation Yrotation Xrotation
					JOINT RightArm
					{
						OFFSET -2.700000 1.550000 -0.730000
						CHANNELS 3 Zrotation Yrotation Xrotation
						JOINT RightForeArm
						{
							OFFSET -5.450000 0.000000 0.000000
							CHANNELS 3 Zrotation Yrotation Xrotation
							JOINT RightHand
							{
								OFFSET -3.450000 0.000000 0.000000
								CHANNELS 3 Zrotation Yrotation Xrotation
								JOINT RightHandIndex1
								{
									OFFSET -0.750000 0.000000 0.000000
									CHANNELS 3 Zrotation Yrotation Xrotation
									End Site
									{
										OFFSET 0.000000 0.000000 0.000000
									}
								}
							}
						}
					}
				}
			}
		}
	}
}
MOTION
Frames: 14
Frame Time: 0.016667
-2.858940 18.023650 -10.129750 -30.766561 49.383219 -24.428030 -15.619729 11.129378 0.814213 20.822382 -0.302263 -23.253276 5.732121 6.433860 32.028012 -0.646214 6.022018 2.313729 0.803210 0.661520 0.257430 18.725275 -6.771701 7.308159 -31.755345 11.025799 -71.033716 53.785256 -40.423224 50.021305 -2.811740 -13.627774 0.012420 0.627730 0.417600 0.137610 -5.625134 -0.862466 -9.715147 25.562893 -11.302479 33.040342 -12.223577 -2.803426 19.144180 2.902324 -2.953436 -6.039060 -9.231947 -5.343028 37.004969 16.595380 -14.369660 -22.466170 1.473927 -34.966804 0.276023 -28.922485 -57.345111 11.162746 98.387005 -47.157922 -62.016916 -3.747631 1.906309 0.435920 -0.000190 -0.047770 0.373720 -7.339196 31.979714 2.396277 -8.284961 32.769774 -9.628230 -111.114372 53.979040 -79.455826 1.798327 -0.843161 -0.208060 0.548300 -0.093560 0.061770 
-2.949000 18.060480 -10.123370 -31.601287 51.943617 -25.315276 -15.697731 11.299627 0.994063 20.544586 -0.271297 -23.475063 3.956802 6.747105 30.322048 -0.642986 5.806240 2.347670 0.738760 0.535540 0.272450 18.566675 -6.724642 7.236456 -27.073336 14.791116 -71.795691 52.484086 -43.722523 55.540911 -3.161056 -14.640911 -0.212837 0.501520 0.321430 0.158950 -5.480329 -1.169197 -9.864166 24.153113 -10.803690 35.025246 -11.186102 -2.049205 18.010215 3.538459 -3.277763 -8.536208 -10.594886 -4.258528 41.337552 19.164220 -14.211730 -24.460600 -1.285561 -33.903293 4.823126 -35.569117 -55.252948 9.317735 99.573609 -57.759183 -75.533465 -3.738876 1.648056 0.566890 -0.096040 0.031100 0.306910 -5.686978 32.844443 2.099222 -0.279164 33.700110 -7.398654 -121.624959 64.874059 -111.487096 2.070750 -1.189083 -0.197900 0.473440 -0.066170 0.019420 
-3.010620 18.069610 -10.100450 -33.996301 56.208731 -27.584268 -15.825666 11.347876 1.148478 19.884031 -0.452129 -24.215231 2.448013 6.882945 29.023854 -0.585610 5.596124 2.431542 0.646190 0.364450 0.310860 18.384296 -6.728461 7.095183 -23.138488 17.297635 -71.955368 50.777729 -47.261313 60.989711 -3.497469 -15.647216 -0.401097 0.336110 0.239700 0.145700 -5.672706 -0.967009 -10.004376 25.259585 -11.878336 36.144548 -12.735946 -1.993159 14.964695 4.391544 -3.462571 -10.588540 -11.826890 -3.758451 46.518219 21.535520 -14.967690 -25.166740 -5.470369 -34.241542 8.739804 -39.861341 -49.781688 6.424744 101.487741 -71.278487 -91.836681 -3.854011 0.733704 0.680680 -0.191150 0.097190 0.246630 -3.088506 34.824814 1.439760 10.569168 31.374140 -13.604882 179.854396 78.792267 169.651598 1.690525 -1.559544 -0.201510 0.420700 -0.067040 -0.020330 
-3.074190 18.035980 -10.064500 -36.222458 60.051843 -30.133102 -15.955322 11.449586 1.369666 19.462355 -0.574242 -25.234439 0.987707 7.276180 29.070174 -0.507359 5.580312 2.394640 0.655290 0.362780 0.373600 18.194896 -6.704723 6.895769 -19.009192 19.835922 -71.030547 49.137641 -50.315074 66.011020 -3.845228 -16.614225 -0.600966 0.277330 0.108050 0.145760 -5.692780 -0.940267 -10.111445 24.943223 -12.322419 37.753896 -13.315998 -1.799597 12.003172 4.707342 -2.662182 -12.054963 -11.106764 -4.165148 50.506941 22.716850 -15.097470 -25.897790 -8.844545 -34.104358 9.343261 -42.934809 -43.200854 3.324400 110.956966 -87.193207 -126.710110 -3.410819 2.984211 0.746450 -0.289450 0.193560 0.212980 -0.415683 35.049188 2.588827 19.229445 29.871911 -15.539257 118.268255 74.841264 87.735930 2.899924 1.178654 -0.150070 0.341690 -0.112960 -0.043150 
-3.135360 17.972600 -9.999480 -36.346852 63.242687 -31.019011 -16.025876 11.549884 1.725288 19.757336 -0.599421 -26.226998 -1.592292 8.392490 29.814404 -0.446812 5.907892 2.214317 0.653360 0.331750 0.451560 18.056888 -6.588114 6.772964 -15.723945 22.616971 -70.324172 46.961588 -53.309039 71.776993 -4.210241 -17.694823 -0.806722 0.216400 -0.014110 0.151700 -5.375623 -1.393094 -10.231742 21.797271 -11.018553 40.605103 -11.657300 -0.722891 8.866501 4.296531 -1.444990 -13.631602 -9.690668 -4.944941 55.152325 24.128070 -14.979220 -27.657500 -12.237999 -32.552765 8.225013 -47.947756 -36.829792 -0.176971 -74.272626 -76.668122 46.452218 -3.252838 3.233276 0.860420 -0.378670 0.292720 0.155000 3.562727 34.050267 6.170902 25.504064 28.954890 -11.329160 103.067479 72.635717 61.164408 3.398303 0.013394 -0.132730 0.288090 -0.129510 -0.096290 
-3.174220 17.887050 -9.950270 -38.903214 66.113144 -34.138778 -16.075012 11.635761 2.069679 20.451722 -0.714632 -27.638585 -3.060812 9.121457 30.830675 -0.293050 6.137548 2.078928 0.706780 0.411610 0.512410 17.955350 -6.490613 6.588526 -11.686478 24.857927 -69.392830 41.949038 -55.660841 79.347297 -4.626260 -18.996822 -1.031971 0.183120 -0.144030 0.182770 -5.097919 -1.689863 -10.341317 20.131371 -10.443075 42.995140 -9.956265 -0.061274 5.877596 3.862005 -1.038978 -14.520176 -9.352719 -5.863885 58.127046 25.427600 -15.109740 -29.375660 -14.537917 -31.179711 7.777705 -51.414555 -30.986352 -3.439974 -71.695655 -67.140841 37.611421 -3.114858 3.364081 0.891680 -0.462490 0.412630 0.151740 6.713205 33.270858 7.937730 30.357551 25.424168 -11.068202 91.432814 66.634259 45.699128 2.895243 -1.175000 -0.029400 0.197220 -0.205520 -0.086970 
-3.196170 17.808570 -9.898130 -42.854283 69.684806 -39.637273 -16.114855 11.807944 2.344259 20.578201 -1.205531 -28.456143 -3.981941 9.710450 32.646176 -0.208425 6.487660 1.931556 0.715720 0.434080 0.522370 17.850029 -6.415228 6.398988 -7.484653 26.053398 -67.468171 32.851478 -57.472819 90.887605 -5.090208 -20.820834 -1.327289 0.164540 -0.182990 0.197350 -4.795551 -1.909823 -10.382542 18.290837 -9.817119 45.927704 -8.166995 0.424499 3.513260 3.307252 -0.104561 -14.777103 -7.414368 -7.636398 59.675155 27.071250 -15.285370 -30.071960 -17.404990 -30.311034 7.265405 -51.654297 -26.248083 -5.824375 -72.583459 -59.987294 33.194404 -3.082969 3.380447 0.923800 -0.490420 0.467240 0.150810 10.702352 32.206379 8.828467 33.814404 20.352127 -12.831046 84.850192 59.286817 35.501744 2.622151 -1.527940 0.000360 0.170470 -0.224970 -0.086170 
-3.192050 17.734210 -9.866200 -50.641370 74.325699 -49.690025 -16.103162 12.205328 2.423898 18.873294 -1.877904 -28.784687 -2.968361 9.427778 34.651258 -0.142506 6.542678 1.913152 0.704150 0.436040 0.528460 17.783098 -6.341981 6.284271 -3.735684 25.900052 -64.137745 19.825895 -57.007512 105.685423 -5.516358 -22.743061 -1.628621 0.140990 -0.213540 0.195560 -4.553022 -1.966078 -10.296281 16.981224 -9.999490 48.905136 -6.882972 -0.123011 2.060697 2.653061 0.646787 -14.929586 -5.436474 -9.477127 60.157147 28.504400 -15.712200 -30.077400 -18.681887 -29.467699 7.092387 -50.465706 -20.776700 -8.316773 -85.124709 -53.601073 35.554544 -3.091627 3.414380 0.924160 -0.510230 0.496510 0.137880 13.242727 30.781302 9.689720 36.996379 14.763204 -15.225663 84.637701 55.978196 31.912745 2.601786 -1.602954 0.024000 0.141030 -0.241630 -0.080940 
-3.196470 17.679730 -9.825320 -58.233701 77.655445 -59.105799 -15.999544 12.502583 2.449689 17.473813 -2.176760 -28.399175 -2.665103 9.427935 35.751636 -0.152653 6.685969 1.871290 0.633130 0.315560 0.523170 17.851904 -6.307219 6.236126 -0.829247 25.550102 -60.774328 8.382830 -53.666433 117.566603 -5.636244 -23.531008 -1.769509 0.088660 -0.197030 0.193860 -4.316893 -1.951171 -10.209149 15.811477 -9.516557 51.722593 -5.984598 -0.238363 0.735539 1.885844 0.715312 -14.670838 -4.886390 -10.405391 59.770888 29.697720 -16.197780 -29.779560 -19.389088 -27.527092 6.847926 -48.265081 -15.502586 -9.931334 -97.258036 -49.173606 38.898126 -3.128154 3.428671 0.961540 -0.504440 0.470920 0.090730 15.444302 28.838850 10.024752 39.212796 10.384702 -16.669571 85.411461 54.119645 30.564360 2.589209 -1.599237 -0.026080 0.133100 -0.193660 -0.115090 
-3.206000 17.631980 -9.787480 -65.877703 79.144721 -67.735465 -15.866656 12.577006 2.506552 17.105346 -2.026389 -28.757791 -2.710790 9.850963 37.052690 -0.139595 6.989652 1.772278 0.522410 0.191160 0.483880 18.028095 -6.298935 6.182730 2.142331 25.397562 -57.769501 -1.918113 -47.452144 126.686935 -5.446965 -22.933019 -1.698821 0.029820 -0.153060 0.191990 -4.140669 -1.738696 -10.187436 16.378289 -8.840487 54.141259 -5.940133 0.637007 -0.819097 1.313467 1.544035 -13.880787 -2.897794 -12.827177 57.434937 30.627810 -16.781920 -30.595030 -19.137798 -24.206771 6.154463 -45.757305 -10.908026 -10.694600 -104.733359 -44.459199 39.159073 -3.179196 3.411496 0.981230 -0.469600 0.446320 0.037580 16.146100 25.251997 10.016555 42.532534 5.444939 -17.894506 89.647181 53.325973 32.140467 2.607209 -1.552646 -0.082080 0.151140 -0.128790 -0.134370 
-3.216450 17.618390 -9.743420 -67.822986 78.719948 -70.485563 -15.841694 12.537077 2.470603 18.258514 -1.044384 -28.671362 -2.945943 10.492918 37.572925 -0.109563 7.283355 1.675079 0.468020 0.133280 0.487320 18.139988 -6.279939 6.168534 5.922132 26.164198 -54.438010 -9.545487 -39.425116 131.479596 -5.030761 -21.253446 -1.448188 0.000280 -0.129900 0.199430 -4.135729 -1.452655 -10.207247 17.790214 -8.197400 56.145153 -6.502162 1.914247 -1.531632 1.072158 2.788618 -13.049259 -0.021573 -15.122405 54.642108 29.526320 -16.580010 -30.298310 -18.906345 -20.626774 5.459786 -41.606588 -6.841847 -10.771371 -114.231161 -40.616510 41.826558 -3.204689 3.449967 0.975270 -0.426770 0.433090 0.009690 16.191795 21.241149 9.733978 45.425284 1.219329 -18.687671 95.729329 53.858241 36.410450 2.629523 -1.535110 -0.108340 0.155250 -0.108450 -0.154100 
-3.216350 17.645590 -9.681930 -71.651940 79.490093 -74.953463 -15.763894 12.664601 2.419005 18.128757 -0.570337 -28.095038 -2.953907 10.477837 36.912260 -0.137094 7.195589 1.695374 0.456140 0.104600 0.526890 18.237542 -6.358861 6.140217 8.671775 25.450337 -50.459302 -14.244031 -31.386475 132.144752 -4.568996 -19.439400 -1.177732 -0.005500 -0.155400 0.186680 -3.986680 -1.448197 -10.100542 17.027052 -6.879301 57.196132 -5.381516 2.522255 -1.217214 0.677568 3.851116 -12.562877 2.508855 -15.793501 53.040631 28.661460 -15.568620 -29.186610 -17.710582 -17.479991 5.084892 -39.713710 -3.698466 -11.001074 -120.636407 -37.731367 43.075004 -3.173391 3.523938 0.976590 -0.423450 0.421460 -0.022790 15.768880 17.448981 9.256829 46.175074 -2.384397 -19.004426 102.179616 53.072308 40.382919 2.632621 -1.568230 -0.127810 0.133430 -0.108220 -0.192000 
-3.220940 17.689960 -9.633260 -80.389459 80.467018 -83.849442 -15.551110 12.854272 2.384397 17.176129 -0.387471 -27.613041 -2.846600 9.956252 35.172268 -0.229208 6.870497 1.805067 0.406970 0.018400 0.529570 18.413820 -6.565755 6.045097 9.156903 23.972871 -47.134447 -15.435871 -26.680455 129.758790 -4.290733 -18.485696 -1.043487 -0.040150 -0.151490 0.212000 -3.789143 -1.321763 -9.919415 16.647936 -6.224168 57.490632 -4.800119 2.784896 -0.676233 0.419372 4.976644 -12.494033 5.143357 -16.765897 51.228288 27.424330 -15.345410 -27.911350 -16.493666 -15.201538 5.091797 -38.365067 -0.302598 -11.508152 -124.457775 -34.264569 40.864617 -3.167764 3.572732 0.995520 -0.398870 0.406900 -0.058040 14.969143 14.336689 9.048299 46.982119 -5.919441 -19.783891 108.565756 53.189359 45.369657 2.623463 -1.562037 -0.156010 0.106680 -0.069070 -0.225790 
-3.224710 17.749670 -9.606450 -91.403204 81.199079 -94.416786 -15.286158 12.881680 2.424224 16.391838 -0.371494 -27.169124 -4.135115 9.855106 32.865795 -0.378256 6.634476 1.863190 0.325710 -0.100190 0.522220 18.644271 -6.831494 5.910272 7.395704 22.629676 -45.247364 -15.852731 -22.407102 126.210012 -4.011863 -17.705337 -0.942053 -0.069400 -0.142490 0.221670 -3.593435 -1.103680 -9.736636 16.766903 -5.846663 56.798491 -4.567205 2.708148 0.348681 0.499006 6.558750 -12.336805 9.005530 -18.212920 48.111403 25.233100 -15.006070 -27.457070 -15.185069 -12.802182 4.979067 -37.220078 3.034437 -12.195928 -123.436027 -31.537467 35.655924 -3.201714 3.531868 1.031830 -0.361190 0.369440 -0.135770 13.374310 10.762888 8.567643 47.759215 -8.128996 -20.249708 113.411490 54.347792 50.964757 2.602788 -1.485021 -0.221180 0.101640 0.015580 -0.284540 
